<?xml version="1.0" encoding="UTF-8"?>
<svg width="162px" height="56px" viewBox="0 0 162 56" version="1.1" xmlns="http://www.w3.org/2000/svg" xmlns:xlink="http://www.w3.org/1999/xlink">
    <!-- Generator: Sketch 46.1 (44463) - http://www.bohemiancoding.com/sketch -->
    <title>logo_play_store</title>
    <desc>Created with Sketch.</desc>
    <defs/>
    <g id="assets" stroke="none" stroke-width="1" fill="none" fill-rule="evenodd">
        <g id="Artboard" transform="translate(-1079.000000, -737.000000)">
            <g id="logo_play_store" transform="translate(1079.000000, 737.000000)">
                <rect id="background" stroke="#fff" stroke-width="0.75" x="0.375" y="0.375" width="161.25" height="55.25" rx="6"/>
                <g id="Group-21" transform="translate(6.406114, 22.143675)" fill="#fff">
                    <path d="M20.2769497,17.6877932 L16.6616172,14.1654766 L20.2980116,10.7151139 C21.832727,11.5724681 25.0372318,13.3603906 25.4839012,13.5914969 C26.0733157,13.8981375 26.1406458,14.4306073 25.4419578,14.8191664 C24.9126227,15.112242 21.7743815,16.8557887 20.2769497,17.6877932 Z M0.0943763994,28.2488772 C0.0338039382,28.1459943 -3.37507799e-13,28.015082 -3.37507799e-13,27.860802 L-3.37507799e-13,14.1937081 L-3.37507799e-13,0.79893758 C-3.37507799e-13,0.662379457 0.0207693642,0.543000167 0.0586453954,0.441052411 L14.6964699,14.3597127 L0.0943763994,28.2488772 Z M0.960008299,27.9580591 L1.03573468,27.9162386 C1.06469159,27.9087161 1.0879314,27.9020958 1.10196061,27.8977778 L1.32258673,28.6145931 L0.960008299,27.9580591 Z M4.81451724,25.8293741 L15.7792294,15.4000003 L18.6873108,18.2332621 L13.3424414,21.1197563 L4.81451724,25.8293741 Z M1.15676583,0.823314144 C1.15541624,0.822589418 1.15407039,0.821870806 1.15272832,0.821158275 L1.14739978,0.818198422 L1.15676583,0.823314144 Z M15.5768524,13.1269758 L4.71798883,2.80161417 C5.4652298,3.2167268 5.8029586,3.40434294 7.13131487,4.14227544 C11.6270719,6.63976046 11.6270719,6.63976046 13.1256577,7.47225 L18.4310132,10.418829 L15.5768524,13.1269758 Z" id="Combined-Shape"/>
                </g>
                <g id="Google-play" transform="translate(37.953811, 22.448624)" fill="#fff">
                    <path d="M73.4968759,16.4796561 L72.2722844,17.6510281 C71.9892779,17.8086979 71.7077888,17.9917488 71.4270584,18.1217304 C70.5765212,18.5132132 69.7115682,18.6116607 68.9429739,18.6116607 C68.1250622,18.6116607 66.8428072,18.5578222 65.5347554,17.5987278 C63.7175953,16.3012199 62.9232042,14.0707677 62.9232042,12.1271979 C62.9232042,8.10315448 66.1546384,6.12958886 68.7904691,6.12958886 C69.7115682,6.12958886 70.6577054,6.36340178 71.4270584,6.85640863 C72.7062784,7.71397903 73.037085,8.828436 73.2206979,9.42527424 L67.2016869,11.8903085 L65.2305044,12.045671 C65.868597,15.345202 68.0704336,17.26416 70.5036831,17.26416 C71.7191697,17.26416 72.6213006,16.8619095 73.4490758,16.447353 C73.4490758,16.447353 73.6152378,16.3596732 73.4968759,16.4796561 L73.4968759,16.4796561 Z M69.8192663,9.86056216 C70.3023282,9.67937679 70.5536103,9.5229689 70.5536103,9.15904957 C70.5536103,8.11529794 69.4097138,6.90971836 68.0445389,6.90971836 C67.0334094,6.90971836 65.1349161,7.72272964 65.1349161,10.5458145 C65.1349161,10.9863892 65.1859227,11.4556129 65.2114259,11.9248365 L69.8192663,9.86056216 L69.8192663,9.86056216 Z" id="Fill-1"/>
                    <path d="M60.9355521,16.3384904 C60.9355521,17.3443491 61.1125138,17.5008672 61.9511915,17.5798935 C62.3883022,17.6320662 62.8239003,17.6550835 63.254961,17.7072562 L62.311165,18.2773195 L57.8137653,18.2773195 C58.4036378,17.5008672 58.5049749,17.4233754 58.5049749,16.906252 L58.5049749,16.3285162 L58.4951437,0.934504877 L56.5092396,0.934504877 L58.4210315,0 L62.0706785,0 C61.2796444,0.464950702 61.0429391,0.748064249 60.9416021,1.65418105 L60.9355521,16.3384904" id="Fill-2"/>
                    <path d="M53.957932,7.39983582 C54.5430627,7.88850136 55.7639095,8.92566904 55.7639095,10.8926054 C55.7639095,12.8096779 54.7001042,13.7133639 53.6272388,14.5687204 C53.2980556,14.905493 52.9130018,15.2706497 52.9130018,15.8352617 C52.9130018,16.4083122 53.2980556,16.7190022 53.5751433,16.9506772 L54.4954972,17.6725521 C55.6144181,18.632239 56.634433,19.5121439 56.634433,21.2995704 C56.634433,23.7344596 54.3150504,26.1900615 49.9322329,26.1900615 C46.240247,26.1900615 44.4554097,24.4034021 44.4554097,22.4878639 C44.4554097,21.5557938 44.9121891,20.235553 46.4191837,19.3310998 C47.9986591,18.349933 50.1383499,18.2187528 51.284451,18.1420392 C50.9265775,17.6725521 50.5181186,17.180818 50.5181186,16.3783939 C50.5181186,15.9395922 50.6479798,15.6779989 50.773311,15.3696102 C50.4947133,15.39646 50.2138506,15.4240769 49.9586581,15.4240769 C47.2564869,15.4240769 45.729107,13.3758241 45.729107,11.3574897 C45.729107,10.1668949 46.2636522,8.84588691 47.3614329,7.88850136 C48.814067,6.67335816 50.5460538,6.46393007 51.9224322,6.46393007 L57.1727532,6.46393007 L55.5404274,7.39983582 L53.957932,7.39983582 L53.957932,7.39983582 Z M52.1654492,18.8626701 C51.9546191,18.8345549 51.8282732,18.8345549 51.5740593,18.8345549 C51.3411567,18.8345549 49.9536358,18.8860995 48.878935,19.2562835 C48.3103787,19.4694908 46.6671216,20.0997408 46.6671216,21.9717474 C46.6671216,23.8398491 48.4412912,25.1870379 51.1858883,25.1870379 C53.6519157,25.1870379 54.9610413,23.9741775 54.9610413,22.3411505 C54.9610413,20.9970857 54.1139152,20.2879567 52.1654492,18.8626701 L52.1654492,18.8626701 Z M52.8859263,13.8768636 C53.4723081,13.2811119 53.5234285,12.4582251 53.5234285,11.9909539 C53.5234285,10.13487 52.4356151,7.24405957 50.3268959,7.24405957 C49.6690958,7.24405957 48.9564163,7.57979126 48.5519632,8.09906647 C48.1227017,8.63669604 47.9941487,9.33416142 47.9941487,10.00486 C47.9941487,11.7332282 48.9849836,14.5995662 51.1643694,14.5995662 C51.8003681,14.5995662 52.4844802,14.2852479 52.8859263,13.8768636 L52.8859263,13.8768636 Z" id="Fill-3"/>
                    <path d="M38.0786973,18.6116607 C34.0201638,18.6116607 31.8486517,15.3851236 31.8486517,12.4637054 C31.8486517,9.05023455 34.5785527,6.12958886 38.4615493,6.12958886 C42.2151631,6.12958886 44.5659952,9.12979724 44.5659952,12.2798615 C44.5659952,15.3565428 42.2424016,18.6116607 38.0786973,18.6116607 L38.0786973,18.6116607 Z M41.252679,16.5014544 C41.8722013,15.6648307 42.0225265,14.6206004 42.0225265,13.6027082 C42.0225265,11.3004436 40.9474732,6.90971836 37.7701438,6.90971836 C36.9251336,6.90971836 36.0740497,7.2466918 35.4606011,7.79669444 C34.4599512,8.71155797 34.2815348,9.86114094 34.2815348,10.9890337 C34.2815348,13.5717221 35.5327269,17.8315312 38.6379305,17.8315312 C39.6400989,17.8315312 40.6627662,17.3365289 41.252679,16.5014544 L41.252679,16.5014544 Z" id="Fill-4"/>
                    <path d="M24.4762369,18.6116607 C20.4152555,18.6116607 18.2466234,15.3851236 18.2466234,12.4637054 C18.2466234,9.05023455 20.9784187,6.12958886 24.8615192,6.12958886 C28.6144262,6.12958886 30.9639669,9.12979724 30.9639669,12.2798615 C30.9639669,15.3565428 28.6424329,18.6116607 24.4762369,18.6116607 L24.4762369,18.6116607 Z M27.6517921,16.5014544 C28.2670608,15.6648307 28.4204982,14.6206004 28.4204982,13.6027082 C28.4204982,11.3004436 27.341879,6.90971836 24.1660291,6.90971836 C23.317566,6.90971836 22.4751796,7.2466918 21.8599109,7.79669444 C20.8572508,8.71155797 20.6795065,9.86114094 20.6795065,10.9890337 C20.6795065,13.5717221 21.9366296,17.8315312 25.0380396,17.8315312 C26.0384209,17.8315312 27.0600708,17.3365289 27.6517921,16.5014544 L27.6517921,16.5014544 Z" id="Fill-5"/>
                    <path d="M16.562956,17.8404926 L13.1252897,18.6389516 C11.7324421,18.8616878 10.4816908,19.057449 9.15723184,19.057449 C2.52657837,19.057449 0,14.1071569 0,10.2327808 C0,5.50137129 3.57976261,1.1144707 9.71041953,1.1144707 C11.0075231,1.1144707 12.2552349,1.30791976 13.3920051,1.62237082 C15.1936645,2.13566594 16.0363639,2.76842163 16.562956,3.13913476 L14.5660092,5.06283537 L13.7240697,5.25397229 L14.3243696,4.28364414 C13.5113052,3.47824865 12.0166347,1.99154253 9.18002804,1.99154253 C5.38750094,1.99154253 2.52657837,4.91562912 2.52657837,9.18461055 C2.52657837,13.7695845 5.79327322,18.0824966 11.0325989,18.0824966 C12.572102,18.0824966 13.3646497,17.7688162 14.0842496,17.4759451 L14.0842496,13.5453069 L10.4543354,13.7433802 L12.3783343,12.69521 L17.4725242,12.69521 L16.8494282,13.3033029 C16.6814962,13.448197 16.6587,13.4975227 16.6115879,13.6917424 C16.586512,13.9137079 16.562956,14.6196813 16.562956,14.8678511 L16.562956,17.8404926" id="Fill-6"/>
                    <path d="M80.9157476,16.5989014 L80.9157476,23.1809906 L79.6216292,23.1809906 L79.6216292,6.43208162 L80.9157476,6.43208162 L80.9157476,8.33970049 C81.7587819,7.10675533 83.2992907,6.12958886 85.0884643,6.12958886 C88.297605,6.12958886 90.4590177,8.58858693 90.4590177,12.4811709 C90.4590177,16.3477176 88.297605,18.8580245 85.0884643,18.8580245 C83.3993632,18.8580245 81.8861468,17.9781152 80.9157476,16.5989014 L80.9157476,16.5989014 Z M89.1319905,12.5815238 C89.1319905,9.61678638 87.6123589,7.35550664 84.9178093,7.35550664 C83.2444644,7.35550664 81.6441713,8.69277269 80.9486564,9.85901108 L80.9486564,15.2769507 C81.6441713,16.4455107 83.2444644,17.8315312 84.9178093,17.8315312 C87.6123589,17.8315312 89.1319905,15.5509045 89.1319905,12.5815238 L89.1319905,12.5815238 Z" id="Fill-7"/>
                    <polygon id="Fill-8" points="92.2283872 1.78315312 93.5554143 1.78315312 93.5554143 18.6116607 92.2283872 18.6116607"/>
                    <path d="M107.982773,22.0220632 C108.259508,22.1469174 108.731852,22.223515 109.031332,22.223515 C109.82287,22.223515 110.374065,21.8964431 110.869155,20.7413506 L111.813085,18.580531 L106.7151,6.352483 L108.15867,6.352483 L112.531838,16.9490012 L116.862547,6.352483 L118.326588,6.352483 L112.108775,21.1465522 C111.463566,22.6708453 110.448366,23.4038848 109.054078,23.4038848 C108.635564,23.4038848 108.083611,23.3288191 107.760627,23.2284761 L107.982773,22.0220632" id="Fill-9"/>
                    <path d="M104.330598,18.5950565 C104.243675,18.1722764 104.1781,17.7995522 104.130064,17.4884353 C104.090414,17.1780885 104.067539,16.8608109 104.067539,16.5381427 C103.621483,17.1996511 102.989379,17.7502663 102.181903,18.1838277 C101.373663,18.6204695 100.605836,18.8345549 99.5528382,18.8345549 C98.2848179,18.8345549 97.3004438,18.5195875 96.5981908,17.8804118 C95.8982253,17.2420061 95.5459551,16.3771936 95.5459551,15.2828939 C95.5459551,14.1901343 96.0560607,13.3029892 97.0732219,12.6245388 C98.090383,11.943008 99.4049152,11.6041678 101.032068,11.6041678 L104.067539,11.6041678 L104.067539,10.0893982 C104.067539,9.21688482 103.773218,8.53073349 103.185339,8.03325452 C102.595172,7.53500546 101.767108,7.28318561 100.693523,7.28318561 C99.7121985,7.28318561 98.9161593,7.5134429 98.3099801,7.96163603 C97.7091382,8.41907025 97.4064298,8.98585744 97.4064298,9.66892841 L96.0743604,9.66892841 L96.0469108,9.60347065 C95.9988739,8.68244147 96.4159558,7.87461571 97.3027312,7.17691301 C98.1856943,6.4799804 99.3423911,6.12958886 100.765959,6.12958886 C102.184952,6.12958886 103.333262,6.47458976 104.198688,7.16305137 C105.063351,7.84458215 105.497208,8.82952891 105.497208,10.1171215 L105.497208,16.1315345 C105.497208,16.5635557 105.517795,16.9809451 105.571169,17.3875533 C105.626068,17.7949316 105.713755,18.2015398 105.830416,18.5950565 L104.330598,18.5950565 L104.330598,18.5950565 Z M99.7094254,17.7200842 C100.814091,17.7200842 101.607927,17.4692896 102.419284,16.9731187 C103.225309,16.4800441 103.773833,15.8368024 104.061046,15.0581006 L104.061046,12.704966 L101.013693,12.704966 C99.8496036,12.704966 98.8858782,12.9665974 98.127849,13.4945046 C97.3682962,14.0208637 96.9835678,14.6579129 96.9835678,15.3986859 C96.9835678,16.0976598 97.2273561,16.6565292 97.7118853,17.0799387 C98.1979381,17.5079924 98.8622612,17.7200842 99.7094254,17.7200842 L99.7094254,17.7200842 Z" id="Fill-10"/>
                </g>
                <g id="Get-it-on" transform="translate(37.953811, 8.979450)" fill="#fff">
                    <path d="M0.00468465939,4.15113596 C0.00468465939,1.68863904 1.90197171,0.104610974 4.26123335,0.104610974 C5.84243253,0.104610974 6.87655655,0.83215023 7.52088952,1.72307443 L6.36595307,2.36855488 C5.92829294,1.78168787 5.16162789,1.32523575 4.26123335,1.32523575 C2.65647954,1.32523575 1.46431158,2.49750444 1.46431158,4.15113596 C1.46431158,5.78058944 2.65647954,6.97703617 4.26123335,6.97703617 C5.08868453,6.97703617 5.81811808,6.61363288 6.18283486,6.27367496 L6.18283486,5.06550554 L3.75062986,5.06550554 L3.75062986,3.85733612 L7.59383288,3.85733612 L7.59383288,6.7777505 C6.8036132,7.63423931 5.66007414,8.20865097 4.26123335,8.20865097 C1.90197171,8.20865097 0.00468465939,6.60264286 0.00468465939,4.15113596" id="Fill-1"/>
                    <polyline id="Fill-2" points="9.43362638 8.08947391 9.43362638 0.223788032 15.067994 0.223788032 15.067994 1.43933376 10.8763018 1.43933376 10.8763018 3.46671668 14.9817262 3.46671668 14.9817262 4.68152571 10.8763018 4.68152571 10.8763018 6.87466488 15.067994 6.87466488 15.067994 8.08947391 9.43362638 8.08947391"/>
                    <polyline id="Fill-3" points="18.8997435 8.08947391 18.8997435 1.43933376 16.4478391 1.43933376 16.4478391 0.223788032 22.7721293 0.223788032 22.7721293 1.43933376 20.320225 1.43933376 20.320225 8.08947391 18.8997435 8.08947391"/>
                    <polygon id="Fill-4" points="27.8315615 0.223788032 29.2114066 0.223788032 29.2114066 8.08947391 27.8315615 8.08947391"/>
                    <polyline id="Fill-5" points="33.1589015 8.08947391 33.1589015 1.43933376 30.7062388 1.43933376 30.7062388 0.223788032 37.030529 0.223788032 37.030529 1.43933376 34.5793831 1.43933376 34.5793831 8.08947391 33.1589015 8.08947391"/>
                    <path d="M41.7449999,4.15699783 C41.7449999,1.81933632 43.4804023,0.104610974 45.9424132,0.104610974 C48.390584,0.104610974 50.1390577,1.81933632 50.1390577,4.15699783 C50.1390577,6.49392562 48.390584,8.20865097 45.9424132,8.20865097 C43.4804023,8.20865097 41.7449999,6.49392562 41.7449999,4.15699783 L41.7449999,4.15699783 Z M48.6442255,4.09704244 C48.6442255,2.49303417 47.5809159,1.29638156 45.9424107,1.29638156 C44.2916836,1.29638156 43.2398321,2.49303417 43.2398321,4.09704244 C43.2398321,5.6887066 44.2916836,6.89770332 45.9424107,6.89770332 C47.5809159,6.89770332 48.6442255,5.6887066 48.6442255,4.09704244 L48.6442255,4.09704244 Z" id="Fill-6"/>
                    <polyline id="Fill-7" points="57.3916338 8.08947391 53.1680952 2.46481233 53.1680952 8.08947391 51.7488771 8.08947391 51.7488771 0.223788032 53.2052435 0.223788032 57.3431135 5.67237965 57.3431135 0.223788032 58.7630898 0.223788032 58.7630898 8.08947391 57.3916338 8.08947391"/>
                </g>
            </g>
        </g>
    </g>
</svg>