<?xml version="1.0" encoding="UTF-8"?>
<svg width="165px" height="56px" viewBox="0 0 165 56" version="1.1" xmlns="http://www.w3.org/2000/svg" xmlns:xlink="http://www.w3.org/1999/xlink">
    <!-- Generator: Sketch 46.1 (44463) - http://www.bohemiancoding.com/sketch -->
    <title>logo_appstore</title>
    <desc>Created with Sketch.</desc>
    <defs/>
    <g id="assets" stroke="none" stroke-width="1" fill="none" fill-rule="evenodd">
        <g id="Artboard" transform="translate(-1257.000000, -737.000000)">
            <g id="logo_appstore" transform="translate(1257.000000, 737.000000)">
                <rect id="background" stroke="#fff" stroke-width="0.75" x="0.375" y="0.375" width="163.545923" height="55.25" rx="6"/>
                <g id="icon" transform="translate(14.366789, 9.745696)" fill="#fff">
                    <path d="M21.2461151,16.6733609 C21.2106707,12.7124695 24.4715536,10.785483 24.6206644,10.6957699 C22.7738901,7.98840296 19.9114509,7.61849036 18.9055639,7.58899566 C16.5014572,7.33460394 14.1694616,9.03546454 12.9447972,9.03546454 C11.6956884,9.03546454 9.80980295,7.61357458 7.77725116,7.65535872 C5.16170044,7.69591392 2.71481608,9.21857742 1.37281856,11.5830686 C-1.39673187,16.4042218 0.668819866,23.4890927 3.3222594,27.386079 C4.64959028,29.2958603 6.20058741,31.4256229 8.23069476,31.3506572 C10.2168022,31.2695468 10.9586897,30.0774697 13.3554631,30.0774697 C15.7302364,30.0774697 16.4269018,31.3506572 18.4973424,31.3014994 C20.628894,31.2695468 21.9708916,29.3855733 23.2517781,27.4585868 C24.7856641,25.2735216 25.401663,23.1167223 25.4261074,23.0061172 C25.3772186,22.9901409 21.2876706,21.4207774 21.2461151,16.6733609" id="Fill-2"/>
                    <path d="M17.3350112,5.02541532 C18.4032315,3.68217787 19.134119,1.85473589 18.9312305,0.000257105054 C17.3851223,0.0690780539 15.4515703,1.07558443 14.3381279,2.38932719 C13.3530186,3.54699386 12.4730202,5.44448574 12.7003532,7.22891463 C14.4371277,7.35918285 16.2203466,6.34776069 17.3350112,5.02541532" id="Fill-3"/>
                </g>
                <g id="App-Store" transform="translate(50.603005, 24.190179)" fill="#fff">
                    <path d="M13.7772911,16.6321199 L11.0016296,16.6321199 L9.48118797,11.8281718 L4.19630886,11.8281718 L2.74797821,16.6321199 L0.0456498762,16.6321199 L5.28286241,0.277312946 L8.51685642,0.277312946 L13.7772911,16.6321199 L13.7772911,16.6321199 Z M9.02285549,9.8127012 L7.64785803,5.54334448 C7.50241386,5.10583988 7.22863658,4.07844143 6.82774844,2.46114913 L6.77885964,2.46114913 C6.6175266,3.15673229 6.35963819,4.18413074 6.00641662,5.54334448 L4.65464135,9.8127012 L9.02285549,9.8127012 L9.02285549,9.8127012 Z" id="Fill-4"/>
                    <path d="M27.2192663,10.5906237 C27.2192663,12.5962628 26.6778228,14.1816025 25.5937137,15.3454139 C24.6232711,16.381415 23.41694,16.898801 21.9783871,16.898801 C20.4249455,16.898801 19.3078365,16.3420887 18.6295044,15.2249773 L18.6295044,21.4127179 L16.0237314,21.4127179 L16.0237314,8.71525286 C16.0237314,7.4555837 15.9907315,6.16396197 15.927176,4.8391587 L18.2188385,4.8391587 L18.3642826,6.70961378 L18.4131714,6.70961378 C19.2821698,5.30001327 20.6009452,4.59582749 22.3707197,4.59582749 C23.7542727,4.59582749 24.9092705,5.14516613 25.8332688,6.24507237 C26.7560449,7.3474365 27.2192663,8.79513432 27.2192663,10.5906237 L27.2192663,10.5906237 Z M24.5646045,10.6864815 C24.5646045,9.53864635 24.3079383,8.59235831 23.7921615,7.84761732 C23.2287181,7.0721527 22.4721639,6.68257697 21.5237212,6.68257697 C20.8808335,6.68257697 20.2966124,6.89887138 19.7747245,7.32654442 C19.2516143,7.75544641 18.9093927,8.31707451 18.7492819,9.01388662 C18.6686154,9.33709929 18.6282822,9.60132257 18.6282822,9.81024331 L18.6282822,11.779014 C18.6282822,12.6343601 18.8898372,13.358209 19.4129474,13.9505608 C19.9360575,14.5404546 20.6156118,14.8366305 21.4516103,14.8366305 C22.4330529,14.8366305 23.1969404,14.4544284 23.7432727,13.696169 C24.2908272,12.9354518 24.5646045,11.9326322 24.5646045,10.6864815 L24.5646045,10.6864815 Z" id="Fill-5"/>
                    <path d="M40.708908,10.5906237 C40.708908,12.5962628 40.1674645,14.1816025 39.0833554,15.3454139 C38.1116905,16.381415 36.9065817,16.898801 35.4668066,16.898801 C33.9145872,16.898801 32.7974782,16.3420887 32.1179239,15.2249773 L32.1179239,21.4127179 L29.5121509,21.4127179 L29.5121509,8.71525286 C29.5121509,7.4555837 29.479151,6.16396197 29.4155955,4.8391587 L31.707258,4.8391587 L31.8527021,6.70961378 L31.9015909,6.70961378 C32.7693671,5.30001327 34.0881424,4.59582749 35.8591392,4.59582749 C37.2414699,4.59582749 38.39769,5.14516613 39.3229105,6.24507237 C40.2444644,7.3474365 40.708908,8.79513432 40.708908,10.5906237 L40.708908,10.5906237 Z M38.053024,10.6864815 C38.053024,9.53864635 37.7951356,8.59235831 37.2793588,7.84761732 C36.7171376,7.0721527 35.9618056,6.68257697 35.0133629,6.68257697 C34.3704753,6.68257697 33.7862541,6.89887138 33.2619217,7.32654442 C32.7400338,7.75544641 32.3978122,8.31707451 32.2377014,9.01388662 C32.1582571,9.33709929 32.1154794,9.60132257 32.1154794,9.81024331 L32.1154794,11.779014 C32.1154794,12.6343601 32.3782567,13.358209 32.8989224,13.9505608 C33.4220326,14.5392257 34.1015869,14.8366305 34.9400298,14.8366305 C35.9226946,14.8366305 36.6865821,14.4544284 37.2316922,13.696169 C37.7792467,12.9354518 38.053024,11.9326322 38.053024,10.6864815 L38.053024,10.6864815 Z" id="Fill-6"/>
                    <path d="M55.7911023,12.0456952 C55.7911023,13.4368615 55.3083254,14.5687203 54.3452161,15.4425006 C53.2867736,16.3961623 51.8091096,16.8742221 49.9146687,16.8742221 C48.1644497,16.8742221 46.7613412,16.5350332 45.7028987,15.8554263 L46.3054532,13.6715901 C47.4482288,14.351197 48.7034487,14.6916149 50.0698906,14.6916149 C51.0525555,14.6916149 51.816443,14.4679468 52.3615531,14.0242975 C52.9091076,13.5781903 53.1841071,12.9846096 53.1841071,12.2423265 C53.1841071,11.577467 52.9567742,11.0195257 52.5069972,10.5660448 C52.0559981,10.1150218 51.3104439,9.69226454 50.2642236,9.30637565 C47.4164511,8.238422 45.9913426,6.6752033 45.9913426,4.62163534 C45.9913426,3.27962684 46.4948973,2.18094955 47.4983398,1.32191663 C48.5030047,0.464112664 49.8352244,0.035210679 51.4925547,0.035210679 C52.9726631,0.035210679 54.205883,0.294518183 55.1848812,0.811904245 L54.5309935,2.94781155 C53.6094397,2.44640178 52.5693305,2.1956969 51.4057771,2.1956969 C50.4866677,2.1956969 49.7643357,2.42305182 49.2497811,2.87530377 C48.815893,3.27962684 48.5946712,3.77243399 48.5946712,4.35741206 C48.5946712,5.00260845 48.8452262,5.5384287 49.3451142,5.95749912 C49.7777801,6.3458459 50.5673342,6.76737421 51.7088876,7.21962616 C53.1095517,7.78739899 54.1374387,8.44857168 54.7974375,9.20806001 C55.4611029,9.96754834 55.7911023,10.9150653 55.7911023,12.0456952" id="Fill-7"/>
                    <path d="M64.4285307,6.80547153 L61.5563138,6.80547153 L61.5563138,12.5311287 C61.5563138,13.9874291 62.0623129,14.7137359 63.0767555,14.7137359 C63.5424213,14.7137359 63.9286428,14.6744097 64.2341978,14.5920703 L64.3063087,16.5817331 C63.7929764,16.7746775 63.1170887,16.8717642 62.2810903,16.8717642 C61.2507588,16.8717642 60.4477603,16.5546963 59.8659836,15.9242473 C59.2866514,15.2925693 58.9969852,14.2344472 58.9969852,12.7449652 L58.9969852,6.80055574 L57.2870995,6.80055574 L57.2870995,4.83424292 L58.9969852,4.83424292 L58.9969852,2.67498565 L61.5563138,1.89829208 L61.5563138,4.83424292 L64.4285307,4.83424292 L64.4285307,6.80547153" id="Fill-8"/>
                    <path d="M77.3620624,10.6385526 C77.3620624,12.4512472 76.8475078,13.9395002 75.8171763,15.1033116 C74.7404005,16.3003046 73.3079588,16.898801 71.5222954,16.898801 C69.7989652,16.898801 68.4288567,16.3248835 67.4070808,15.1770484 C66.3853049,14.0292133 65.874417,12.5815154 65.874417,10.8351839 C65.874417,9.00774189 66.4036382,7.51088625 67.4547474,6.34707485 C68.508301,5.18326344 69.9285206,4.59951432 71.7141839,4.59951432 C73.4362919,4.59951432 74.8174004,5.17588977 75.8648429,6.32249594 C76.8646188,7.43714952 77.3620624,8.87378683 77.3620624,10.6385526 L77.3620624,10.6385526 Z M74.6609563,10.6987709 C74.6609563,9.61852781 74.4287345,8.69190289 73.9630687,7.91643827 C73.4167363,6.97998179 72.6332933,6.51298249 71.6212952,6.51298249 C70.5787416,6.51298249 69.7757431,6.97998179 69.2318552,7.91643827 C68.7637449,8.69190289 68.5327454,9.6345041 68.5327454,10.7479287 C68.5327454,11.8294008 68.7637449,12.7584836 69.2318552,13.5302614 C69.7952986,14.4679468 70.581186,14.9361751 71.6005175,14.9361751 C72.5954045,14.9361751 73.3764031,14.4568863 73.9422909,13.5081404 C74.4201789,12.7142416 74.6609563,11.7814719 74.6609563,10.6987709 L74.6609563,10.6987709 Z" id="Fill-9"/>
                    <path d="M85.8357134,7.14343154 C85.5778249,7.09550267 85.3016032,7.0721527 85.0143815,7.0721527 C84.0977166,7.0721527 83.388829,7.41748639 82.8901632,8.11552745 C82.4562752,8.7300002 82.2399422,9.50669377 82.2399422,10.4443792 L82.2399422,16.6321199 L79.6341693,16.6321199 L79.6341693,8.55303205 C79.6341693,7.19504725 79.6085027,5.95504123 79.5583916,4.84038765 L81.8280541,4.84038765 L81.9233873,7.09673161 L81.9954982,7.09673161 C82.2717199,6.32126699 82.7043858,5.69573372 83.2983847,5.22873443 C83.8801614,4.80597717 84.505938,4.59582749 85.1818257,4.59582749 C85.422603,4.59582749 85.6401582,4.61426167 85.8332689,4.64375636 L85.8357134,7.14343154" id="Fill-10"/>
                    <path d="M97.4895807,10.177698 C97.4895807,10.6471552 97.4590252,11.0428757 97.3942475,11.3660883 L89.5781509,11.3660883 C89.6062619,12.5311287 89.9863723,13.4233431 90.7111488,14.0378159 C91.3699253,14.5859256 92.2230349,14.8612094 93.2680329,14.8612094 C94.4254752,14.8612094 95.4814733,14.6768676 96.4311382,14.3032681 L96.8393597,16.1221075 C95.7295839,16.607541 94.4181419,16.8508722 92.907478,16.8508722 C91.0888147,16.8508722 89.6612618,16.312594 88.6223749,15.2384957 C87.5871546,14.1631683 87.0664889,12.7166995 87.0664889,10.9076917 C87.0664889,9.13063644 87.5480435,7.64975709 88.5160417,6.46874045 C89.5280399,5.20784235 90.895704,4.57739331 92.6165897,4.57739331 C94.3069199,4.57739331 95.5865842,5.20784235 96.4543604,6.46874045 C97.1436924,7.46787316 97.4895807,8.70665024 97.4895807,10.177698 L97.4895807,10.177698 Z M95.0048075,9.49809115 C95.0231408,8.72016864 94.85203,8.05162228 94.4988084,7.48384945 C94.0478093,6.75385581 93.3535883,6.39008794 92.4234789,6.39008794 C91.5703694,6.39008794 90.8773707,6.7452532 90.3493717,7.45804159 C89.9154836,8.02458548 89.6575952,8.70665024 89.5781509,9.49563326 L95.0048075,9.49809115 L95.0048075,9.49809115 Z" id="Fill-11"/>
                </g>
                <g id="Available-on-the" transform="translate(51.594269, 10.125367)" fill="#fff">
                    <path d="M6.77514912,8.48865677 L5.40992943,8.48865677 L4.66315303,6.12785244 L2.06593561,6.12785244 L1.35338138,8.48865677 L0.0248282792,8.48865677 L2.59882352,0.450124152 L4.18770947,0.450124152 L6.77514912,8.48865677 L6.77514912,8.48865677 Z M4.43826456,5.13732235 L3.76237692,3.03828341 C3.69148816,2.82321794 3.56071063,2.32303712 3.35904433,1.52422253 L3.33459993,1.52422253 C3.25148898,1.86955622 3.13293364,2.37096599 2.95448952,3.03828341 L2.29082409,5.13732235 L4.43826456,5.13732235 L4.43826456,5.13732235 Z" id="Fill-12"/>
                    <path d="M13.2113594,2.69294972 L11.0284746,8.48865677 L9.78303244,8.48865677 L7.67103635,2.69294972 L9.04725603,2.69294972 L10.0323653,5.75793983 C10.1985872,6.27041011 10.3403647,6.75953043 10.4466979,7.22407184 L10.4821423,7.22407184 C10.5774754,6.80745931 10.7192529,6.31833899 10.8964748,5.75793983 L11.8693619,2.69294972 L13.2113594,2.69294972" id="Fill-13"/>
                    <path d="M17.8582397,8.48865677 L17.7629066,7.82133936 L17.7274622,7.82133936 C17.3363518,8.35838855 16.7667973,8.62015394 16.0432431,8.62015394 C15.0116894,8.62015394 14.275913,7.8926182 14.275913,6.91437757 C14.275913,5.48388498 15.509133,4.74405978 17.6443512,4.74405978 L17.6443512,4.63714152 C17.6443512,3.87396636 17.2410186,3.4917643 16.4465757,3.4917643 C15.8770212,3.4917643 15.3783554,3.63555093 14.9408007,3.92189523 L14.6804678,3.07515177 C15.2145779,2.74087859 15.8782434,2.573742 16.6616864,2.573742 C18.1674614,2.573742 18.9276822,3.37255659 18.9276822,4.9714147 L18.9276822,7.10609307 C18.9276822,7.69107113 18.9521266,8.14455203 19.0107931,8.48988572 L17.8582397,8.48865677 L17.8582397,8.48865677 Z M17.6797956,5.60186375 C16.2559094,5.60186375 15.5445773,5.94842639 15.5445773,6.77059094 C15.5445773,7.37891897 15.9124655,7.67632378 16.4221313,7.67632378 C17.0747967,7.67632378 17.6797956,7.17614296 17.6797956,6.49653609 L17.6797956,5.60186375 L17.6797956,5.60186375 Z" id="Fill-14"/>
                    <path d="M21.7803436,1.73805905 C21.3537888,1.73805905 21.021345,1.40378587 21.021345,0.962594432 C21.021345,0.521402992 21.3647888,0.199419267 21.804788,0.199419267 C22.2435649,0.199419267 22.599231,0.521402992 22.5870088,0.962594432 C22.5870088,1.42836478 22.2557871,1.73805905 21.7803436,1.73805905 L21.7803436,1.73805905 Z M21.1643447,2.69294972 L22.4452312,2.69294972 L22.4452312,8.48865677 L21.1643447,8.48865677 L21.1643447,2.69294972 Z" id="Fill-15"/>
                    <polygon id="Fill-16" points="24.7210048 0.0335116223 26.0018913 0.0335116223 26.0018913 8.48865677 24.7210048 8.48865677"/>
                    <path d="M31.445659,8.48865677 L31.3491037,7.82133936 L31.3148815,7.82133936 C30.9237711,8.35838855 30.3542166,8.62015394 29.6306624,8.62015394 C28.5991087,8.62015394 27.8633323,7.8926182 27.8633323,6.91437757 C27.8633323,5.48388498 29.0965523,4.74405978 31.2317705,4.74405978 L31.2317705,4.63714152 C31.2317705,3.87396636 30.8284379,3.4917643 30.033995,3.4917643 C29.4644405,3.4917643 28.9657747,3.63555093 28.52822,3.92189523 L28.2666649,3.07392283 C28.800775,2.73964965 29.4644405,2.57251306 30.2478835,2.57251306 C31.7536585,2.57251306 32.5151015,3.37132764 32.5151015,4.97018576 L32.5151015,7.10486412 C32.5151015,7.68984219 32.5395459,8.14332308 32.595768,8.48865677 L31.445659,8.48865677 L31.445659,8.48865677 Z M31.2672149,5.60186375 C29.8433287,5.60186375 29.1319966,5.94842639 29.1319966,6.77059094 C29.1319966,7.37891897 29.4998848,7.67632378 30.0095506,7.67632378 C30.662216,7.67632378 31.2672149,7.17614296 31.2672149,6.49653609 L31.2672149,5.60186375 L31.2672149,5.60186375 Z" id="Fill-17"/>
                    <path d="M37.7034252,8.62015394 C36.8857601,8.62015394 36.2819834,8.27359131 35.8896508,7.59398444 L35.8652064,7.59398444 L35.7918732,8.48865677 L34.701653,8.48865677 C34.7358752,8.02411537 34.7480974,7.49812669 34.7480974,6.92666702 L34.7480974,0.0335116223 L36.0314283,0.0335116223 L36.0314283,3.54092212 L36.0546505,3.54092212 C36.4347609,2.89695467 37.0507598,2.57497095 37.8928693,2.57497095 C39.2813112,2.57497095 40.2541983,3.76827704 40.2541983,5.5084639 C40.2541983,7.30764013 39.1737558,8.62015394 37.7034252,8.62015394 L37.7034252,8.62015394 Z M37.4430924,3.58639311 C36.7060937,3.58639311 36.0314283,4.23036056 36.0314283,5.12503289 L36.0314283,6.13891294 C36.0314283,6.93772753 36.6376494,7.59398444 37.4198702,7.59398444 C38.3793129,7.59398444 38.9513118,6.80745931 38.9513118,5.55516382 C38.9500896,4.38643664 38.3560907,3.58639311 37.4430924,3.58639311 L37.4430924,3.58639311 Z" id="Fill-18"/>
                    <polygon id="Fill-19" points="42.1498614 0.0335116223 43.4295257 0.0335116223 43.4295257 8.48865677 42.1498614 8.48865677"/>
                    <path d="M50.4010684,5.90049751 L46.5559644,5.90049751 C46.581631,6.99794586 47.3027408,7.6173344 48.3697388,7.6173344 C48.9405155,7.6173344 49.4624035,7.52147665 49.9244026,7.34327955 L50.1236245,8.23795189 C49.5785144,8.47636732 48.9380711,8.59557503 48.1912947,8.59557503 C46.387298,8.59557503 45.3203,7.45019781 45.3203,5.67437154 C45.3203,3.89731632 46.4129647,2.56145255 48.048295,2.56145255 C49.5174034,2.56145255 50.4450683,3.65890089 50.4450683,5.31674839 C50.448735,5.54287437 50.437735,5.74565038 50.4010684,5.90049751 L50.4010684,5.90049751 Z M49.2277372,4.98247521 C49.2277372,4.08780288 48.7755158,3.45612488 47.9566285,3.45612488 C47.2208521,3.45612488 46.6415198,4.10009233 46.5559644,4.98247521 L49.2277372,4.98247521 L49.2277372,4.98247521 Z" id="Fill-20"/>
                    <path d="M58.1646096,8.62015394 C56.4803905,8.62015394 55.3889481,7.35556901 55.3889481,5.63873212 C55.3889481,3.84938745 56.5036127,2.573742 58.261165,2.573742 C59.9197174,2.573742 61.0368265,3.77810861 61.0368265,5.54410332 C61.0368265,7.35556901 59.8854953,8.62015394 58.1646096,8.62015394 L58.1646096,8.62015394 Z M58.2134984,3.51511427 C57.2882779,3.51511427 56.6955012,4.38520769 56.6955012,5.60186375 C56.6955012,6.79516985 57.3005001,7.66526328 58.2012762,7.66526328 C59.1020523,7.66526328 59.7070512,6.73495152 59.7070512,5.57728484 C59.7070512,4.39749715 59.1142745,3.51511427 58.2134984,3.51511427 L58.2134984,3.51511427 Z" id="Fill-21"/>
                    <path d="M67.9228138,8.48865677 L66.6443717,8.48865677 L66.6443717,5.16067231 C66.6443717,4.13573175 66.2520391,3.62203253 65.4808183,3.62203253 C64.7218197,3.62203253 64.1987095,4.27828943 64.1987095,5.0414646 L64.1987095,8.48865677 L62.9202675,8.48865677 L62.9202675,4.34956827 C62.9202675,3.83709799 62.9056008,3.28775935 62.8713787,2.69172077 L63.9982655,2.69172077 L64.0581542,3.58639311 L64.0948208,3.58639311 C64.4358202,2.96700457 65.1373745,2.57251306 65.9208175,2.57251306 C67.1283708,2.57251306 67.9228138,3.50282481 67.9228138,5.01688569 L67.9228138,8.48865677" id="Fill-22"/>
                    <path d="M76.303576,3.65890089 L74.8943564,3.65890089 L74.8943564,6.47318612 C74.8943564,7.18966136 75.1424671,7.54728451 75.6399106,7.54728451 C75.8647991,7.54728451 76.0566876,7.5227056 76.2094651,7.48706618 L76.2449095,8.46530681 C75.9955766,8.56116456 75.6619105,8.60909343 75.2500224,8.60909343 C74.2392465,8.60909343 73.6379143,8.04869428 73.6379143,6.58133333 L73.6379143,3.65890089 L72.7982492,3.65890089 L72.7982492,2.69294972 L73.6379143,2.69294972 L73.6379143,1.63114079 L74.8943564,1.24893874 L74.8943564,2.69172077 L76.303576,2.69172077 L76.303576,3.65890089" id="Fill-23"/>
                    <path d="M83.0868968,8.48865677 L81.8047881,8.48865677 L81.8047881,5.18525122 C81.8047881,4.14802121 81.4124555,3.62326147 80.6424569,3.62326147 C79.9787914,3.62326147 79.3627926,4.07674237 79.3627926,4.99476467 L79.3627926,8.48865677 L78.0806838,8.48865677 L78.0806838,0.0335116223 L79.3627926,0.0335116223 L79.3627926,3.51511427 L79.387237,3.51511427 C79.7893473,2.88343627 80.3723463,2.57251306 81.1191227,2.57251306 C82.3401204,2.57251306 83.0868968,3.52617478 83.0868968,5.0414646 L83.0868968,8.48865677" id="Fill-24"/>
                    <path d="M89.6318847,5.90049751 L85.7880029,5.90049751 C85.8124473,6.99794586 86.5335571,7.6173344 87.6017773,7.6173344 C88.1737763,7.6173344 88.694442,7.52147665 89.1539967,7.34327955 L89.3544408,8.23795189 C88.8105529,8.47636732 88.1688874,8.59557503 87.4208888,8.59557503 C85.6181143,8.59557503 84.5511163,7.45019781 84.5511163,5.67437154 C84.5511163,3.89731632 85.6425587,2.56145255 87.277889,2.56145255 C88.7482197,2.56145255 89.6746624,3.65890089 89.6746624,5.31674839 C89.6795513,5.54287437 89.6673291,5.74565038 89.6318847,5.90049751 L89.6318847,5.90049751 Z M88.4573313,4.98247521 C88.4573313,4.08780288 88.0075544,3.45612488 87.188667,3.45612488 C86.4528906,3.45612488 85.8723361,4.10009233 85.7880029,4.98247521 L88.4573313,4.98247521 L88.4573313,4.98247521 Z" id="Fill-25"/>
                </g>
            </g>
        </g>
    </g>
</svg>